<svg xmlns="http://www.w3.org/2000/svg" width="1200" height="800" viewBox="0 0 1200 800" role="img" aria-label="Galeri gorengan hangat 1">
  <defs>
    <linearGradient id="bg" x1="0" y1="0" x2="1" y2="1">
      <stop offset="0" stop-color="#090603"/>
      <stop offset="0.55" stop-color="#2a1307"/>
      <stop offset="1" stop-color="#070402"/>
    </linearGradient>
    <radialGradient id="warm" cx="30%" cy="22%" r="70%">
      <stop offset="0" stop-color="#f59e0b" stop-opacity="0.52"/>
      <stop offset="0.55" stop-color="#f97316" stop-opacity="0.18"/>
      <stop offset="1" stop-color="#000" stop-opacity="0"/>
    </radialGradient>
    <linearGradient id="gold" x1="0" y1="0" x2="1" y2="1">
      <stop offset="0" stop-color="#ffe0b8"/>
      <stop offset="0.4" stop-color="#f59e0b"/>
      <stop offset="1" stop-color="#92400e"/>
    </linearGradient>
  </defs>
  <rect width="1200" height="800" fill="url(#bg)"/>
  <rect width="1200" height="800" fill="url(#warm)"/>
  <g opacity="0.28">
    <path d="M0 600 C 220 560, 420 660, 640 620 S 1040 580, 1200 640 L 1200 800 L 0 800 Z" fill="#000"/>
  </g>
  <g>
    <ellipse cx="600" cy="580" rx="430" ry="160" fill="rgba(0,0,0,0.28)"/>
    <ellipse cx="600" cy="560" rx="440" ry="170" fill="rgba(255,255,255,0.05)" stroke="rgba(255,255,255,0.10)" stroke-width="2"/>
    <g transform="translate(290 420) rotate(-8)">
      <rect x="0" y="0" width="320" height="150" rx="44" fill="url(#gold)" stroke="rgba(60,25,6,0.50)" stroke-width="6"/>
      <circle cx="94" cy="62" r="12" fill="rgba(255,255,255,0.18)"/>
      <circle cx="246" cy="104" r="9" fill="rgba(0,0,0,0.10)"/>
    </g>
    <g transform="translate(520 390) rotate(12)">
      <rect x="0" y="0" width="360" height="170" rx="50" fill="url(#gold)" stroke="rgba(60,25,6,0.50)" stroke-width="6"/>
      <circle cx="106" cy="74" r="12" fill="rgba(255,255,255,0.16)"/>
      <circle cx="266" cy="124" r="9" fill="rgba(0,0,0,0.10)"/>
    </g>
  </g>
</svg>
