<svg xmlns="http://www.w3.org/2000/svg" width="1200" height="800" viewBox="0 0 1200 800" role="img" aria-label="Galeri gorengan hangat 2">
  <defs>
    <linearGradient id="bg" x1="0" y1="0" x2="1" y2="1">
      <stop offset="0" stop-color="#070402"/>
      <stop offset="0.55" stop-color="#261107"/>
      <stop offset="1" stop-color="#050302"/>
    </linearGradient>
    <radialGradient id="warm" cx="68%" cy="20%" r="70%">
      <stop offset="0" stop-color="#f97316" stop-opacity="0.50"/>
      <stop offset="0.6" stop-color="#f59e0b" stop-opacity="0.16"/>
      <stop offset="1" stop-color="#000" stop-opacity="0"/>
    </radialGradient>
    <linearGradient id="gold" x1="0" y1="0" x2="1" y2="1">
      <stop offset="0" stop-color="#ffe7bf"/>
      <stop offset="0.35" stop-color="#f59e0b"/>
      <stop offset="1" stop-color="#7c2d12"/>
    </linearGradient>
  </defs>
  <rect width="1200" height="800" fill="url(#bg)"/>
  <rect width="1200" height="800" fill="url(#warm)"/>

  <g opacity="0.26">
    <path d="M0 640 C 260 585, 460 700, 700 650 S 1020 620, 1200 680 L 1200 800 L 0 800 Z" fill="#000"/>
  </g>

  <g>
    <rect x="210" y="240" width="780" height="410" rx="56" fill="rgba(255,255,255,0.05)" stroke="rgba(255,255,255,0.10)" stroke-width="2"/>
    <rect x="250" y="280" width="700" height="330" rx="48" fill="rgba(0,0,0,0.18)" stroke="rgba(255,255,255,0.08)" stroke-width="2"/>
    <g transform="translate(320 350) rotate(-10)">
      <rect x="0" y="0" width="420" height="200" rx="54" fill="url(#gold)" stroke="rgba(60,25,6,0.55)" stroke-width="6"/>
      <path d="M84 112 C 160 66, 260 70, 332 104 C 294 168, 200 182, 134 156 C 108 146, 94 132, 84 112 Z"
            fill="rgba(255,255,255,0.18)"/>
      <circle cx="356" cy="66" r="12" fill="rgba(255,255,255,0.14)"/>
      <circle cx="108" cy="66" r="10" fill="rgba(0,0,0,0.10)"/>
    </g>
  </g>
</svg>
