<svg xmlns="http://www.w3.org/2000/svg" width="1200" height="800" viewBox="0 0 1200 800" role="img" aria-label="Galeri gorengan hangat 4">
  <defs>
    <linearGradient id="bg" x1="0" y1="0" x2="1" y2="1">
      <stop offset="0" stop-color="#070402"/>
      <stop offset="0.55" stop-color="#241006"/>
      <stop offset="1" stop-color="#050302"/>
    </linearGradient>
    <radialGradient id="warm" cx="30%" cy="18%" r="70%">
      <stop offset="0" stop-color="#f97316" stop-opacity="0.52"/>
      <stop offset="0.6" stop-color="#f59e0b" stop-opacity="0.16"/>
      <stop offset="1" stop-color="#000" stop-opacity="0"/>
    </radialGradient>
    <linearGradient id="gold" x1="0" y1="0" x2="1" y2="1">
      <stop offset="0" stop-color="#ffe0b8"/>
      <stop offset="0.4" stop-color="#f59e0b"/>
      <stop offset="1" stop-color="#92400e"/>
    </linearGradient>
  </defs>
  <rect width="1200" height="800" fill="url(#bg)"/>
  <rect width="1200" height="800" fill="url(#warm)"/>

  <g opacity="0.26">
    <path d="M0 590 C 220 540, 420 640, 640 600 S 1040 560, 1200 620 L 1200 800 L 0 800 Z" fill="#000"/>
  </g>

  <g>
    <rect x="190" y="250" width="820" height="420" rx="56" fill="rgba(255,255,255,0.05)" stroke="rgba(255,255,255,0.10)" stroke-width="2"/>
    <g transform="translate(280 360) rotate(-9)">
      <rect x="0" y="0" width="360" height="170" rx="46" fill="url(#gold)" stroke="rgba(60,25,6,0.50)" stroke-width="6"/>
      <circle cx="90" cy="70" r="12" fill="rgba(255,255,255,0.18)"/>
      <circle cx="260" cy="120" r="9" fill="rgba(0,0,0,0.10)"/>
    </g>
    <g transform="translate(520 340) rotate(10)">
      <rect x="0" y="0" width="400" height="185" rx="52" fill="url(#gold)" stroke="rgba(60,25,6,0.50)" stroke-width="6"/>
      <circle cx="120" cy="80" r="12" fill="rgba(255,255,255,0.16)"/>
      <circle cx="310" cy="136" r="9" fill="rgba(0,0,0,0.10)"/>
    </g>
    <g transform="translate(410 520) rotate(6)">
      <rect x="0" y="0" width="420" height="175" rx="54" fill="url(#gold)" stroke="rgba(60,25,6,0.50)" stroke-width="6"/>
      <circle cx="150" cy="86" r="12" fill="rgba(255,255,255,0.16)"/>
      <circle cx="340" cy="128" r="9" fill="rgba(0,0,0,0.10)"/>
    </g>
  </g>
</svg>
